<svg width="254" height="40" viewBox="0 0 254 40" fill="none" xmlns="http://www.w3.org/2000/svg">
<path d="M230.866 8.6658C230.521 7.45747 229.713 6.43415 228.617 5.81823C227.522 5.20231 226.228 5.04357 225.016 5.37649C224.94 5.39497 224.865 5.41628 224.79 5.44036C221.328 6.59419 221.054 11.2914 224.158 13.0076L231.059 16.8259C231.338 16.9802 231.667 17.0173 231.973 16.929C232.28 16.8407 232.539 16.6343 232.693 16.3552C232.847 16.0761 232.885 15.7471 232.796 15.4406C232.708 15.1341 232.502 14.8753 232.222 14.721L225.322 10.9026C223.958 10.1487 224.179 8.18678 225.544 7.7258L225.551 7.72303C225.583 7.71434 225.615 7.706 225.648 7.69803C226.896 7.35091 228.194 8.07292 228.554 9.3295C228.598 9.48139 228.671 9.6232 228.769 9.74685C228.867 9.8705 228.989 9.97356 229.127 10.0501C229.266 10.1267 229.418 10.1753 229.575 10.1932C229.732 10.2111 229.891 10.1978 230.043 10.1543C230.194 10.1107 230.336 10.0376 230.46 9.93922C230.584 9.84084 230.687 9.71906 230.763 9.58084C230.84 9.44263 230.888 9.29068 230.906 9.13368C230.924 8.97668 230.911 8.81769 230.867 8.6658H230.866ZM247.444 9.3295C247.53 9.02909 247.674 8.74855 247.868 8.50411C248.062 8.25966 248.303 8.05616 248.577 7.90536C248.85 7.75456 249.151 7.65945 249.461 7.62553C249.771 7.59161 250.086 7.61956 250.385 7.70775L250.448 7.72303L250.457 7.7258C251.819 8.18678 252.04 10.1487 250.677 10.9026L243.776 14.721C243.638 14.7976 243.516 14.9006 243.418 15.0243C243.319 15.1479 243.246 15.2897 243.203 15.4416C243.159 15.5935 243.146 15.7524 243.164 15.9094C243.181 16.0664 243.23 16.2184 243.307 16.3566C243.383 16.4948 243.486 16.6166 243.61 16.715C243.734 16.8134 243.875 16.8864 244.027 16.93C244.179 16.9736 244.338 16.9868 244.495 16.969C244.652 16.9511 244.804 16.9025 244.942 16.8259L251.843 13.0076C254.946 11.2914 254.671 6.59419 251.21 5.44036C251.135 5.41625 251.059 5.39494 250.982 5.37649C249.77 5.04362 248.476 5.20256 247.381 5.81876C246.285 6.43496 245.477 7.45861 245.133 8.66719C245.089 8.81908 245.076 8.97805 245.094 9.13501C245.112 9.29198 245.16 9.44388 245.237 9.58203C245.392 9.86104 245.651 10.0671 245.958 10.155C246.265 10.2428 246.594 10.2052 246.873 10.0503C247.152 9.89555 247.358 9.63625 247.446 9.3295H247.444ZM240.319 22.5353V16.676H235.681V22.5353C235.681 23.5628 235.223 24.5486 234.432 25.2012L231.766 27.4228H244.234L241.568 25.2012C241.178 24.875 240.864 24.4673 240.648 24.0067C240.432 23.5462 240.32 23.044 240.319 22.5353V22.5353Z" fill="#D3883E"/>
<path d="M238 21.1885C235.433 21.1885 232.972 20.1689 231.157 18.354C229.342 16.5391 228.322 14.0775 228.322 11.5108V1.98582C228.322 1.44431 228.766 1 229.308 1H246.706C247.247 1 247.691 1.44431 247.691 1.98582V11.5108C247.691 16.8565 243.359 21.1885 238 21.1885V21.1885Z" fill="#FFB02E"/>
<path d="M247.905 27.4229H227.64C226.571 27.4229 225.665 28.131 225.459 29.1168L223.218 38.9611C223.117 39.4193 223.482 39.8498 223.98 39.8498H251.581C252.079 39.8498 252.444 39.4193 252.343 38.9611L250.102 29.1168C249.882 28.131 248.974 27.4229 247.905 27.4229V27.4229Z" fill="#6D4534"/>
<path d="M241.784 31.4911H233.778C233.663 31.4933 233.55 31.518 233.446 31.5639C233.341 31.6098 233.246 31.6759 233.167 31.7585C233.088 31.841 233.026 31.9384 232.985 32.0451C232.943 32.1517 232.924 32.2654 232.926 32.3797V34.8929C232.926 35.3788 233.299 35.7815 233.778 35.7815H241.784C242.249 35.7815 242.635 35.3927 242.635 34.8929V32.3797C242.635 31.8938 242.263 31.4911 241.784 31.4911Z" fill="#FFB02E"/>
<path d="M2.02273 31V7.72727H11.2045C12.9697 7.72727 14.4735 8.06439 15.7159 8.73864C16.9583 9.4053 17.9053 10.3333 18.5568 11.5227C19.2159 12.7045 19.5455 14.0682 19.5455 15.6136C19.5455 17.1591 19.2121 18.5227 18.5455 19.7045C17.8788 20.8864 16.9129 21.8068 15.6477 22.4659C14.3902 23.125 12.8674 23.4545 11.0795 23.4545H5.22727V19.5114H10.2841C11.2311 19.5114 12.0114 19.3485 12.625 19.0227C13.2462 18.6894 13.7083 18.2311 14.0114 17.6477C14.322 17.0568 14.4773 16.3788 14.4773 15.6136C14.4773 14.8409 14.322 14.1667 14.0114 13.5909C13.7083 13.0076 13.2462 12.5568 12.625 12.2386C12.0038 11.9129 11.2159 11.75 10.2614 11.75H6.94318V31H2.02273ZM23.3815 31V7.72727H32.5633C34.3209 7.72727 35.8209 8.04167 37.0633 8.67045C38.3133 9.29167 39.2641 10.1742 39.9156 11.3182C40.5747 12.4545 40.9042 13.7917 40.9042 15.3295C40.9042 16.875 40.5709 18.2045 39.9042 19.3182C39.2375 20.4242 38.2716 21.2727 37.0065 21.8636C35.7489 22.4545 34.2262 22.75 32.4383 22.75H26.2906V18.7955H31.6428C32.5822 18.7955 33.3625 18.6667 33.9837 18.4091C34.605 18.1515 35.0671 17.7652 35.3701 17.25C35.6807 16.7348 35.836 16.0947 35.836 15.3295C35.836 14.5568 35.6807 13.9053 35.3701 13.375C35.0671 12.8447 34.6012 12.4432 33.9724 12.1705C33.3512 11.8902 32.5671 11.75 31.6201 11.75H28.3019V31H23.3815ZM35.9497 20.4091L41.7337 31H36.3019L30.6428 20.4091H35.9497ZM66.4078 19.3636C66.4078 21.9015 65.9268 24.0606 64.9647 25.8409C64.0101 27.6212 62.7071 28.9811 61.0556 29.9205C59.4116 30.8523 57.5631 31.3182 55.5101 31.3182C53.4419 31.3182 51.5859 30.8485 49.9419 29.9091C48.298 28.9697 46.9987 27.6098 46.0442 25.8295C45.0897 24.0492 44.6124 21.8939 44.6124 19.3636C44.6124 16.8258 45.0897 14.6667 46.0442 12.8864C46.9987 11.1061 48.298 9.75 49.9419 8.81818C51.5859 7.87879 53.4419 7.40909 55.5101 7.40909C57.5631 7.40909 59.4116 7.87879 61.0556 8.81818C62.7071 9.75 64.0101 11.1061 64.9647 12.8864C65.9268 14.6667 66.4078 16.8258 66.4078 19.3636ZM61.4192 19.3636C61.4192 17.7197 61.173 16.3333 60.6806 15.2045C60.1957 14.0758 59.5101 13.2197 58.6237 12.6364C57.7374 12.053 56.6995 11.7614 55.5101 11.7614C54.3207 11.7614 53.2828 12.053 52.3965 12.6364C51.5101 13.2197 50.8207 14.0758 50.3283 15.2045C49.8434 16.3333 49.601 17.7197 49.601 19.3636C49.601 21.0076 49.8434 22.3939 50.3283 23.5227C50.8207 24.6515 51.5101 25.5076 52.3965 26.0909C53.2828 26.6742 54.3207 26.9659 55.5101 26.9659C56.6995 26.9659 57.7374 26.6742 58.6237 26.0909C59.5101 25.5076 60.1957 24.6515 60.6806 23.5227C61.173 22.3939 61.4192 21.0076 61.4192 19.3636ZM80.0109 7.72727H84.8745V23.9545C84.8745 25.4545 84.5374 26.7576 83.8632 27.8636C83.1965 28.9697 82.2685 29.822 81.0791 30.4205C79.8897 31.0189 78.5071 31.3182 76.9314 31.3182C75.5298 31.3182 74.2571 31.072 73.1132 30.5795C71.9768 30.0795 71.0753 29.322 70.4086 28.3068C69.742 27.2841 69.4124 26 69.42 24.4545H74.3177C74.3329 25.0682 74.4579 25.5947 74.6927 26.0341C74.9351 26.4659 75.2647 26.7992 75.6814 27.0341C76.1056 27.2614 76.6056 27.375 77.1814 27.375C77.7874 27.375 78.2988 27.2462 78.7155 26.9886C79.1397 26.7235 79.4617 26.3371 79.6814 25.8295C79.9011 25.322 80.0109 24.697 80.0109 23.9545V7.72727ZM89.5827 31V7.72727H105.265V11.7841H94.5032V17.3295H104.458V21.3864H94.5032V26.9432H105.31V31H89.5827ZM130.351 15.875H125.373C125.282 15.2311 125.097 14.6591 124.816 14.1591C124.536 13.6515 124.176 13.2197 123.737 12.8636C123.298 12.5076 122.79 12.2348 122.214 12.0455C121.646 11.8561 121.029 11.7614 120.362 11.7614C119.157 11.7614 118.108 12.0606 117.214 12.6591C116.32 13.25 115.627 14.1136 115.135 15.25C114.642 16.3788 114.396 17.75 114.396 19.3636C114.396 21.0227 114.642 22.4167 115.135 23.5455C115.635 24.6742 116.332 25.5265 117.226 26.1023C118.12 26.678 119.154 26.9659 120.328 26.9659C120.987 26.9659 121.597 26.8788 122.157 26.7045C122.726 26.5303 123.229 26.2765 123.669 25.9432C124.108 25.6023 124.472 25.1894 124.76 24.7045C125.055 24.2197 125.26 23.6667 125.373 23.0455L130.351 23.0682C130.222 24.1364 129.9 25.1667 129.385 26.1591C128.877 27.1439 128.191 28.0265 127.328 28.8068C126.472 29.5795 125.449 30.1932 124.26 30.6477C123.078 31.0947 121.741 31.3182 120.248 31.3182C118.173 31.3182 116.316 30.8485 114.68 29.9091C113.051 28.9697 111.763 27.6098 110.816 25.8295C109.877 24.0492 109.407 21.8939 109.407 19.3636C109.407 16.8258 109.885 14.6667 110.839 12.8864C111.794 11.1061 113.089 9.75 114.726 8.81818C116.362 7.87879 118.203 7.40909 120.248 7.40909C121.597 7.40909 122.847 7.59848 123.998 7.97727C125.157 8.35606 126.184 8.90909 127.078 9.63636C127.972 10.3561 128.699 11.2386 129.26 12.2841C129.828 13.3295 130.191 14.5265 130.351 15.875ZM133.633 11.7841V7.72727H152.746V11.7841H145.621V31H140.758V11.7841H133.633ZM164.898 31.3182C163.292 31.3182 161.86 31.0227 160.602 30.4318C159.352 29.8409 158.36 29.0265 157.625 27.9886C156.89 26.9508 156.507 25.7614 156.477 24.4205H161.25C161.303 25.322 161.682 26.053 162.386 26.6136C163.091 27.1742 163.928 27.4545 164.898 27.4545C165.67 27.4545 166.352 27.2841 166.943 26.9432C167.542 26.5947 168.007 26.1136 168.341 25.5C168.682 24.8788 168.852 24.1667 168.852 23.3636C168.852 22.5455 168.678 21.8258 168.329 21.2045C167.989 20.5833 167.515 20.0985 166.909 19.75C166.303 19.4015 165.61 19.2235 164.829 19.2159C164.148 19.2159 163.485 19.3561 162.841 19.6364C162.204 19.9167 161.708 20.2992 161.352 20.7841L156.977 20L158.079 7.72727H172.307V11.75H162.136L161.534 17.5795H161.67C162.079 17.0038 162.697 16.5265 163.523 16.1477C164.348 15.7689 165.273 15.5795 166.295 15.5795C167.697 15.5795 168.947 15.9091 170.045 16.5682C171.144 17.2273 172.011 18.1326 172.648 19.2841C173.284 20.428 173.598 21.7462 173.591 23.2386C173.598 24.8068 173.235 26.2008 172.5 27.4205C171.773 28.6326 170.754 29.5871 169.443 30.2841C168.14 30.9735 166.625 31.3182 164.898 31.3182ZM186.788 31.5114C184.833 31.5038 183.151 31.0227 181.742 30.0682C180.341 29.1136 179.261 27.7311 178.504 25.9205C177.754 24.1098 177.382 21.9318 177.39 19.3864C177.39 16.8485 177.765 14.6856 178.515 12.8977C179.272 11.1098 180.352 9.75 181.754 8.81818C183.163 7.87879 184.841 7.40909 186.788 7.40909C188.735 7.40909 190.409 7.87879 191.81 8.81818C193.219 9.75758 194.303 11.1212 195.06 12.9091C195.818 14.6894 196.193 16.8485 196.185 19.3864C196.185 21.9394 195.807 24.1212 195.049 25.9318C194.299 27.7424 193.223 29.125 191.822 30.0795C190.42 31.0341 188.742 31.5114 186.788 31.5114ZM186.788 27.4318C188.121 27.4318 189.185 26.7614 189.981 25.4205C190.776 24.0795 191.17 22.0682 191.163 19.3864C191.163 17.6212 190.981 16.1515 190.617 14.9773C190.261 13.803 189.754 12.9205 189.094 12.3295C188.443 11.7386 187.674 11.4432 186.788 11.4432C185.462 11.4432 184.401 12.1061 183.606 13.4318C182.81 14.7576 182.409 16.7424 182.401 19.3864C182.401 21.1742 182.579 22.6667 182.935 23.8636C183.299 25.053 183.81 25.947 184.469 26.5455C185.129 27.1364 185.901 27.4318 186.788 27.4318Z" fill="#0D0D0D"/>
</svg>
